<svg id="Ebene_1" data-name="Ebene 1" xmlns="http://www.w3.org/2000/svg" viewBox="0 0 267 267"><defs><style>.cls-1{fill:none;stroke:#f6f6f6;stroke-miterlimit:10;stroke-width:5px;}.cls-2{fill:#f6f6f6;}</style></defs><circle class="cls-1" cx="133.5" cy="133.5" r="131"/><path class="cls-2" d="M332.14,480.5a34.5,34.5,0,1,1-34.5-34.5,34.48,34.48,0,0,1,34.5,34.5Z" transform="translate(-164.14 -287.44)"/><path class="cls-2" d="M317.13,461c-2.94.3-17.93-45.31-1-59.43,8.93-7.44,18.25.92,33.43-5.22,26.45-10.69,26.65-47.61,36.86-47.27,12.15.42,30,53.32,11.88,70.17-17.65,16.39-57.48-12.38-75.2,5.91C311.2,437.5,319.24,460.82,317.13,461Z" transform="translate(-164.14 -287.44)"/><path class="cls-2" d="M242,388c23.47,63,33.55,78.14,38,77,6.82-1.75,6.95-43.38-13-77-11-18.58-30.79-39.1-39-35-14.1,7,17.12,81.08,8,85-7.74,3.33-50.88-41.06-35-75,8-17,29.94-29.7,46-25,9.26,2.71,15.84,12.47,29,32a277.87,277.87,0,0,1,15,25" transform="translate(-164.14 -287.44)"/></svg>